<?xml version="1.0" standalone="no"?>
<!DOCTYPE svg PUBLIC "-//W3C//DTD SVG 20010904//EN"
 "http://www.w3.org/TR/2001/REC-SVG-20010904/DTD/svg10.dtd">
<svg version="1.0" xmlns="http://www.w3.org/2000/svg"
 width="500.000000pt" height="500.000000pt" viewBox="0 0 500.000000 500.000000"
 preserveAspectRatio="xMidYMid meet">

<g id="shirt" transform="translate(0.000000,500.000000) scale(0.100000,-0.100000)"
fill="#000000" stroke="none">
<path d="M1256 4329 c-22 -5 -66 -23 -98 -39 -32 -17 -64 -30 -71 -31 -14 -1
-84 -88 -129 -162 -18 -28 -138 -203 -266 -387 -215 -307 -246 -346 -371 -473
l-136 -137 365 -365 365 -365 135 135 c74 74 139 135 143 135 4 0 7 -479 7
-1065 l0 -1065 1305 0 1305 0 2 1174 3 1174 208 -179 c114 -99 211 -179 216
-179 6 0 159 174 342 386 320 373 331 387 313 403 -11 10 -73 64 -139 121 -66
56 -290 273 -498 482 -347 348 -384 383 -445 411 -57 26 -82 31 -167 35 -83 3
-111 0 -163 -17 -133 -45 -218 -124 -285 -264 -83 -172 -196 -293 -348 -372
-121 -63 -214 -85 -354 -85 -137 0 -233 22 -344 80 -154 80 -261 191 -343 355
-79 158 -170 243 -305 285 -69 21 -177 25 -247 9z"/>
</g>
</svg>
