<?xml version="1.0" standalone="no"?>
<!DOCTYPE svg PUBLIC "-//W3C//DTD SVG 20010904//EN"
 "http://www.w3.org/TR/2001/REC-SVG-20010904/DTD/svg10.dtd">
<svg version="1.0" xmlns="http://www.w3.org/2000/svg"
 width="500.000000pt" height="500.000000pt" viewBox="0 100 500.000000 500.000000"
 preserveAspectRatio="xMidYMid meet">

<g id="beer" transform="translate(0.000000,500.000000) scale(0.040000,-0.04000)"
fill="#000000" stroke="none">
<path d="M1060 4799 c-470 -102 -834 -469 -930 -939 -19 -89 -21 -127 -17
-255 8 -235 56 -409 186 -671 264 -531 814 -1142 1596 -1776 139 -112 491
-377 513 -386 13 -4 92 46 172 110 19 15 109 84 200 154 394 303 832 701 1119
1018 448 492 725 954 808 1346 24 115 24 343 0 458 -91 429 -395 774 -799 906
-142 46 -244 59 -417 53 -206 -7 -332 -40 -504 -129 -225 -117 -429 -329 -533
-557 l-34 -74 -44 89 c-155 317 -445 554 -786 644 -127 33 -398 38 -530 9z"/>
</g>
</svg>
