<?xml version="1.0" standalone="no"?>
<!DOCTYPE svg PUBLIC "-//W3C//DTD SVG 20010904//EN"
 "http://www.w3.org/TR/2001/REC-SVG-20010904/DTD/svg10.dtd">
<svg version="1.0" xmlns="http://www.w3.org/2000/svg"
 width="700.000000pt" height="325.000000pt" viewBox="0 0 700.000000 325.000000"
 preserveAspectRatio="xMidYMid meet">

<g id="beer" transform="translate(0.000000,325.000000) scale(0.050000,-0.050000)"
fill="#000000" stroke="none">
<path d="M3135 3158 c-33 -5 -73 -9 -90 -9 -92 3 -127 2 -195 -8 -90 -14 -171
-36 -220 -61 -43 -22 -77 -81 -114 -198 -24 -76 -26 -99 -26 -235 1 -84 -3
-167 -9 -185 -20 -68 15 -81 90 -33 54 34 76 76 94 175 11 67 25 104 47 133 8
10 13 9 25 -2 8 -8 30 -15 48 -15 28 0 37 -6 49 -28 12 -24 12 -37 -1 -102
-18 -88 -10 -158 36 -301 23 -71 27 -97 20 -121 -10 -37 -3 -96 18 -154 14
-39 13 -44 -11 -105 -15 -35 -38 -80 -52 -100 -20 -29 -23 -41 -15 -61 14 -37
-12 -134 -45 -169 -21 -22 -25 -34 -21 -57 4 -19 -1 -39 -14 -61 -11 -18 -19
-50 -19 -74 l0 -42 35 52 c29 43 35 61 35 105 0 40 3 49 12 40 23 -23 38 -14
32 18 -12 57 16 110 30 56 10 -39 55 -86 82 -86 l25 0 -32 40 c-18 22 -29 43
-26 47 4 3 7 1 7 -4 0 -17 73 -71 106 -79 26 -6 23 -1 -30 47 -60 54 -116 149
-116 196 0 12 10 48 22 80 l23 58 7 -104 c9 -115 17 -131 84 -167 19 -10 34
-26 34 -36 0 -46 118 -78 286 -78 l122 0 18 -50 c18 -49 19 -50 60 -50 24 0
46 -4 49 -10 4 -6 -10 -10 -35 -10 -34 0 -41 -3 -38 -17 2 -13 14 -19 41 -21
32 -3 37 -7 37 -28 0 -18 -5 -24 -21 -24 -15 0 -20 -5 -17 -22 2 -17 9 -22 26
-21 16 2 22 -2 22 -16 0 -11 -5 -21 -12 -23 -16 -6 -1 -28 18 -28 13 0 15 16
14 93 -1 50 -1 122 -1 160 l1 67 138 0 c138 0 138 0 164 27 14 16 34 44 43 63
10 19 20 29 22 22 3 -7 -7 -33 -22 -58 l-27 -46 24 4 c16 2 29 16 43 45 29 60
37 63 20 7 -8 -27 -15 -50 -15 -51 0 -2 25 -3 55 -3 52 0 55 1 55 26 0 14 -16
58 -35 97 -23 46 -35 85 -35 111 0 23 -9 65 -20 94 -20 52 -20 53 -1 90 10 20
24 55 31 77 7 22 29 74 50 115 20 41 40 89 44 105 l8 30 14 -27 c8 -16 19 -28
25 -28 5 0 17 -16 25 -35 20 -50 56 -71 93 -55 52 21 80 61 105 151 14 50 41
114 68 159 55 90 72 141 64 183 -9 45 -65 125 -148 213 -71 75 -118 104 -165
104 -15 0 -52 20 -87 47 -33 25 -108 69 -166 97 l-105 51 -220 1 c-121 1 -247
7 -280 13 -70 13 -176 12 -260 -1z m252 -39 c49 -9 61 -14 53 -24 -15 -18 -1
-25 54 -25 37 0 47 -3 36 -10 -8 -5 -29 -10 -46 -10 -39 0 -44 -6 -30 -35 10
-23 15 -24 65 -18 40 4 52 3 47 -5 -4 -7 -23 -12 -42 -12 -42 0 -43 -23 -1
-28 22 -3 27 -8 27 -30 -1 -24 -2 -25 -11 -8 -9 15 -13 16 -20 5 -15 -23 -11
-69 6 -69 8 0 15 4 15 8 0 12 52 36 72 33 10 -1 18 6 20 21 2 19 10 24 39 26
27 2 38 9 42 23 4 13 14 19 35 19 40 0 47 13 18 35 -28 21 -24 50 7 59 22 6
22 7 3 21 -18 14 -15 15 36 15 47 0 72 -8 149 -47 101 -50 199 -136 199 -174
0 -19 -3 -19 -37 8 -51 39 -90 63 -103 63 -17 0 -11 -20 8 -27 33 -13 100 -63
116 -88 23 -35 20 -39 -11 -17 -16 11 -38 22 -50 26 -11 4 -27 13 -33 21 -13
16 -50 21 -50 7 0 -5 17 -17 38 -26 39 -18 107 -75 99 -83 -3 -2 -14 1 -26 8
-27 18 -39 4 -17 -20 13 -14 14 -20 4 -23 -9 -3 -6 -12 10 -33 12 -15 22 -36
22 -45 0 -21 26 -46 32 -31 1 6 9 7 16 2 17 -10 6 -38 -18 -44 -16 -4 -18 -11
-13 -48 6 -39 5 -43 -10 -31 -11 9 -14 23 -10 47 5 32 0 40 -73 115 -51 53
-81 77 -88 70 -6 -6 -4 -16 7 -28 25 -27 21 -39 -5 -15 -49 44 -98 55 -134 28
-10 -8 -26 -15 -34 -15 -29 0 -85 -20 -109 -39 -23 -18 -23 -18 -5 -45 17 -27
21 -55 28 -184 3 -56 6 -67 31 -86 23 -18 27 -28 23 -55 -3 -17 -1 -34 4 -37
15 -9 38 17 38 42 0 16 8 27 23 33 38 15 116 31 147 31 20 0 38 9 53 26 27 31
57 49 57 34 0 -16 -152 -171 -179 -181 -15 -6 -35 -5 -57 3 -18 6 -36 9 -40 5
-4 -3 13 -28 38 -56 24 -27 50 -68 57 -91 11 -36 10 -48 -8 -101 -24 -67 -28
-155 -8 -162 6 -2 24 2 40 10 26 13 27 13 27 -15 0 -45 -41 -113 -90 -149 -75
-55 -102 -64 -160 -53 -127 24 -171 118 -96 207 32 38 37 58 39 159 2 70 -1
94 -16 122 -18 34 -18 37 -3 64 12 19 15 38 10 63 -9 52 -24 53 -24 2 0 -27
-6 -49 -15 -57 -8 -7 -15 -24 -15 -38 0 -20 -3 -23 -12 -14 -18 18 -28 15 -28
-10 0 -23 -56 -88 -76 -88 -6 0 -15 11 -18 25 -8 31 -32 33 -40 3 -5 -22 -6
-22 -20 -3 -14 20 -15 20 -38 -2 -13 -12 -38 -36 -55 -52 -52 -47 -46 -84 22
-155 56 -58 67 -87 43 -118 -15 -19 -193 -98 -221 -98 -29 0 -89 35 -127 75
-33 34 -35 41 -38 113 l-4 77 29 11 c31 11 35 22 63 151 7 28 21 61 33 73 44
43 167 131 208 148 42 18 42 18 44 76 2 31 -1 56 -6 54 -5 -2 -19 -23 -31 -48
-13 -24 -29 -46 -35 -48 -17 -5 -16 52 2 102 8 22 11 44 8 48 -11 20 -41 -26
-58 -90 -16 -60 -25 -74 -84 -132 -78 -77 -119 -142 -127 -204 -4 -28 -12 -46
-20 -46 -22 0 -64 83 -64 126 0 21 -7 66 -15 99 -18 76 -19 120 -1 177 12 42
12 49 -9 99 -20 47 -23 70 -23 207 l0 154 60 66 c34 37 67 82 75 99 29 71 200
110 360 82z m-386 -20 c8 -16 8 -24 -1 -33 -9 -8 -14 -8 -17 2 -9 23 -23 12
-60 -44 -28 -43 -34 -57 -24 -64 22 -13 2 -30 -28 -24 -23 5 -32 1 -50 -24
-11 -17 -50 -53 -86 -81 -35 -28 -73 -68 -84 -88 -11 -21 -20 -31 -21 -22 0 9
12 34 26 55 38 57 163 182 189 188 22 6 85 91 85 114 0 18 -124 15 -193 -5
-112 -31 -174 -132 -168 -273 2 -41 4 -119 4 -173 0 -53 3 -94 6 -91 3 3 14
33 23 67 l17 62 -6 -50 c-6 -60 -26 -105 -58 -135 l-23 -22 13 39 c25 73 28
158 10 235 -14 57 -16 80 -7 117 20 86 53 161 85 191 37 35 113 60 189 61 29
1 67 5 83 9 56 14 84 11 96 -11z m1284 -332 c24 -75 26 -98 23 -199 -3 -105
-5 -115 -30 -149 -16 -20 -34 -53 -42 -75 l-13 -39 -11 50 c-6 28 -14 57 -17
66 -4 11 0 18 15 22 11 3 27 21 36 42 13 31 14 51 4 126 -6 49 -15 100 -20
114 -6 15 -10 43 -10 64 0 20 -7 46 -15 57 -8 10 -14 33 -14 49 l0 30 34 -37
c24 -26 42 -62 60 -121z m35 88 c7 -9 10 -18 8 -21 -3 -3 5 -36 18 -74 30 -90
38 -153 25 -215 -6 -34 -6 -53 1 -60 7 -7 12 -6 15 2 2 7 11 9 18 7 9 -4 17 4
21 21 5 19 12 25 27 23 32 -5 30 -21 -6 -74 -18 -27 -37 -58 -40 -68 -4 -10
-10 -17 -12 -14 -3 2 1 18 7 36 18 47 2 50 -40 9 -21 -20 -41 -37 -44 -37 -3
0 1 19 9 41 7 23 16 89 20 148 5 106 -2 144 -52 274 -9 21 8 23 25 2z m75 -73
c26 -22 75 -86 75 -98 -1 -5 -9 0 -18 12 -10 12 -28 26 -40 33 -22 12 -60 71
-45 71 5 -1 17 -8 28 -18z m-462 -243 c20 -17 37 -36 37 -42 -1 -7 -8 -3 -18
8 -9 11 -30 30 -46 43 -16 12 -25 22 -20 22 5 0 26 -14 47 -31z m-139 -13 c-5
-14 2 -23 41 -51 18 -13 17 -14 -12 -5 -18 4 -37 11 -43 15 -11 7 -14 38 -3
48 11 12 23 7 17 -7z m108 -23 c10 -9 18 -19 18 -23 0 -9 -50 -20 -50 -11 0 3
-3 16 -6 29 -8 27 11 30 38 5z m482 -197 c-3 -15 -8 -25 -11 -23 -2 3 -1 17 3
31 3 15 8 25 11 23 2 -3 1 -17 -3 -31z m-802 -313 c20 -5 33 -44 24 -68 -8
-22 -23 -18 -22 6 1 30 -24 43 -67 35 -30 -6 -37 -11 -37 -30 0 -13 9 -35 21
-49 14 -19 18 -31 11 -43 -9 -16 -11 -15 -21 4 -14 27 -38 28 -65 3 -21 -19
-21 -19 -68 22 -48 43 -63 77 -46 110 7 14 23 17 99 16 50 0 93 2 96 5 5 5 30
2 75 -11z m-66 -317 c28 -13 54 -28 57 -33 6 -10 -242 -27 -251 -18 -7 7 102
74 123 74 11 1 43 -10 71 -23z"/>
<path d="M3153 3000 c-36 -15 -27 -30 17 -30 22 0 40 -5 40 -10 0 -13 120 -3
134 11 5 5 4 14 -4 24 -14 17 -148 21 -187 5z"/>
<path d="M3165 2887 c-50 -17 -95 -45 -95 -61 0 -13 183 -15 210 -3 8 4 38 8
65 9 36 2 50 7 50 18 0 38 -152 62 -230 37z"/>
<path d="M2945 2839 c-17 -17 -19 -35 -18 -117 4 -228 9 -245 71 -231 29 6 39
5 46 -8 30 -55 81 -74 133 -49 35 17 133 103 133 117 0 4 -9 11 -21 14 -16 5
-18 9 -8 21 15 19 9 24 -42 35 -79 18 -206 -22 -194 -60 4 -14 -2 -21 -25 -29
-34 -12 -38 -4 -15 31 13 21 12 29 -11 87 -21 49 -25 74 -20 109 11 86 11 94
0 98 -6 2 -19 -6 -29 -18z m175 -324 c0 -8 -9 -19 -19 -24 -25 -14 -38 14 -13
28 24 14 32 13 32 -4z m51 -46 c-26 -21 -41 -24 -41 -9 0 6 6 10 14 10 7 0 19
7 26 15 7 9 16 13 19 9 3 -3 -5 -14 -18 -25z"/>
<path d="M3550 2708 c1 -54 32 -178 45 -178 10 0 10 82 -1 173 -5 38 -10 47
-25 47 -16 0 -19 -7 -19 -42z"/>
<path d="M3138 2717 c-77 -27 -83 -30 -75 -51 5 -12 12 -13 37 -5 16 6 38 8
48 3 26 -11 125 -13 140 -1 32 25 -4 77 -54 77 -16 0 -59 -11 -96 -23z"/>
<path d="M3439 2719 c-15 -29 -49 -129 -49 -146 0 -30 19 -9 55 61 35 69 40
106 16 106 -6 0 -15 -9 -22 -21z"/>
<path d="M3496 2724 c-9 -22 -6 -225 3 -248 14 -37 22 2 28 134 5 113 4 130
-9 130 -9 0 -19 -7 -22 -16z"/>
<path d="M2971 2416 c-17 -20 -11 -108 10 -151 30 -62 79 -40 79 36 0 57 -16
73 -31 29 -6 -17 -13 -29 -16 -27 -2 2 -9 32 -16 67 -11 53 -15 60 -26 46z"/>
<path d="M3691 2276 c-17 -20 -7 -64 31 -144 25 -52 32 -81 35 -150 4 -78 2
-92 -19 -132 -25 -45 -50 -64 -100 -75 -36 -7 -35 -24 0 -58 48 -46 131 -32
170 28 62 96 47 205 -59 431 -10 22 -19 49 -19 60 0 11 -6 28 -13 38 -12 16
-14 16 -26 2z"/>
<path d="M3262 2229 c-36 -66 -59 -94 -102 -127 -50 -38 -68 -66 -85 -132 -8
-35 -20 -51 -48 -69 -40 -26 -45 -46 -23 -89 33 -63 109 -107 170 -98 74 10
141 33 141 47 0 11 -18 14 -75 14 -82 0 -116 14 -146 60 -15 24 -15 27 0 44 9
10 27 39 39 65 18 37 34 54 73 74 42 23 51 33 62 72 7 25 21 71 31 102 11 31
17 59 13 62 -13 14 -34 4 -50 -25z"/>
<path d="M3352 1958 c-30 -30 10 -92 56 -86 32 4 53 49 36 76 -13 21 -74 28
-92 10z"/>
<path d="M5914 1515 c-157 -34 -214 -105 -214 -265 0 -87 24 -154 70 -199 21
-20 99 -70 175 -111 75 -41 139 -81 142 -88 8 -20 -27 -52 -57 -52 -16 0 -30
7 -34 15 -4 12 -30 15 -147 15 l-142 0 6 -87 c8 -114 21 -155 59 -194 36 -35
115 -74 171 -84 61 -10 32 -25 -49 -25 -43 0 -74 -4 -74 -10 0 -6 24 -56 52
-113 47 -91 53 -110 58 -182 l5 -80 50 0 c50 -1 53 -4 40 -37 -5 -12 -2 -18 7
-18 7 0 28 27 46 60 19 33 45 68 59 78 13 9 40 29 58 45 34 28 95 38 95 15 0
-7 -7 -35 -15 -62 -18 -58 -14 -69 12 -30 52 81 150 153 168 123 3 -4 -4 -31
-15 -59 -38 -95 -20 -118 25 -31 13 26 34 55 47 63 13 8 49 41 80 72 32 31 62
56 68 56 11 0 4 -133 -11 -190 -11 -44 -11 -50 0 -50 5 0 15 26 21 58 18 87
31 125 51 151 11 13 19 32 19 42 0 23 19 34 33 20 6 -6 14 -30 18 -53 7 -38 8
-36 5 17 -5 95 6 179 25 183 11 2 19 -8 26 -30 9 -32 10 -30 23 42 7 41 17 86
21 99 7 16 2 62 -17 150 -28 139 -47 190 -89 239 -33 39 -160 102 -205 102
-59 0 -173 -22 -209 -40 -67 -34 -96 -30 -217 33 -145 75 -159 90 -159 172 0
48 5 69 17 82 20 19 82 23 100 5 6 -6 14 -42 17 -79 l6 -68 140 0 140 0 -1 77
c-2 108 -22 143 -105 185 -101 52 -263 67 -395 38z m146 -764 c0 -14 -44 -80
-52 -81 -10 0 -11 74 -1 83 10 10 53 8 53 -2z m-22 -338 c4 -28 -24 -83 -42
-83 -20 0 -32 76 -15 96 18 21 53 14 57 -13z m-22 -129 c-5 -19 -10 -24 -17
-17 -8 8 -7 18 1 33 15 28 24 19 16 -16z m75 -117 c-8 -8 -11 -4 -11 14 0 33
14 47 18 19 2 -12 -1 -27 -7 -33z"/>
<path d="M1783 1501 c-62 -21 -127 -64 -153 -102 -36 -49 -41 -114 -38 -441
l3 -315 30 -48 c52 -85 152 -135 267 -135 86 0 136 18 185 67 l42 41 17 -44
17 -44 93 0 94 0 0 265 0 265 -180 0 -181 0 3 -62 c3 -62 3 -63 31 -60 l27 3
0 -121 c0 -115 -1 -122 -25 -145 -29 -30 -64 -32 -96 -6 l-24 19 0 350 c0 330
1 351 19 371 23 26 78 28 97 5 9 -11 16 -53 19 -113 l5 -96 154 -3 154 -3 -6
87 c-10 147 -59 212 -193 259 -59 21 -87 25 -189 24 -89 0 -133 -4 -172 -18z"/>
<path d="M279 1494 c-5 -7 -8 -215 -7 -510 l3 -499 255 0 255 0 0 85 0 85
-102 3 -103 3 -2 420 -3 420 -143 2 c-96 1 -147 -2 -153 -9z"/>
<path d="M955 1499 c-2 -3 -9 -37 -15 -75 -6 -38 -38 -232 -70 -432 -35 -212
-60 -394 -60 -438 l0 -74 144 0 c158 0 156 -1 156 64 0 18 3 54 6 80 l7 47 76
-3 c58 -2 76 -6 78 -18 1 -8 5 -50 8 -92 l7 -78 154 0 c85 0 154 3 154 7 0 4
-36 205 -81 448 -44 242 -85 468 -91 503 -6 34 -14 62 -17 62 -119 4 -454 3
-456 -1z m279 -381 c15 -139 28 -262 29 -273 2 -18 -5 -20 -70 -23 l-73 -3 0
38 c0 21 11 110 25 198 39 259 49 315 55 315 3 0 18 -114 34 -252z"/>
<path d="M2393 1494 c-2 -6 -3 -200 -1 -430 3 -468 0 -448 76 -516 22 -20 66
-46 98 -59 52 -21 76 -23 205 -24 l146 0 69 35 c87 45 130 98 139 172 3 29 5
228 3 442 l-3 388 -145 0 -145 -1 -5 -431 -5 -432 -24 -19 c-30 -24 -56 -24
-81 1 -19 19 -20 33 -20 443 0 232 -4 427 -8 432 -10 14 -293 13 -299 -1z"/>
<path d="M3194 1501 c-2 -2 -4 -233 -4 -513 l0 -508 125 0 125 0 2 268 3 267
74 -200 c41 -110 85 -230 99 -267 l24 -68 134 0 134 0 -2 511 -3 512 -120 -1
-120 -1 -5 -263 c-4 -226 -7 -259 -18 -233 -7 17 -54 134 -104 262 l-92 232
-124 3 c-68 2 -126 1 -128 -1z"/>
<path d="M4314 1497 c-3 -8 -4 -49 -2 -93 l3 -79 98 -3 97 -3 0 -414 c0 -266
4 -416 10 -420 8 -5 205 -8 300 -5 7 0 10 147 10 420 l0 419 98 3 97 3 3 93 3
92 -356 0 c-288 0 -357 -3 -361 -13z"/>
<path d="M5076 1498 c-2 -7 -21 -116 -41 -243 -20 -126 -56 -351 -80 -500 -24
-148 -42 -271 -40 -273 2 -2 73 -4 157 -4 115 1 155 4 160 14 4 7 10 49 15 93
l8 80 70 0 70 0 8 -80 c5 -44 11 -86 15 -93 9 -17 304 -20 310 -4 2 6 -6 60
-17 119 -11 59 -43 234 -71 388 -28 154 -61 332 -73 395 l-22 115 -233 3
c-181 2 -233 0 -236 -10z m283 -389 c12 -114 25 -223 28 -243 l6 -36 -72 0
c-85 0 -81 -20 -47 210 41 275 49 316 57 294 3 -10 16 -112 28 -225z"/>
<path d="M3970 990 l0 -511 148 3 147 3 0 505 0 505 -147 3 -148 3 0 -511z"/>
<path d="M3607 1170 c8 -31 23 -34 23 -6 0 16 -6 26 -14 26 -9 0 -12 -7 -9
-20z"/>
<path d="M2840 440 c-58 -7 -88 -19 -114 -46 -13 -12 -16 -41 -16 -148 0 -125
1 -134 23 -154 12 -11 35 -25 50 -31 42 -16 134 -13 173 5 32 15 36 15 47 1 8
-11 26 -15 57 -14 l45 2 0 95 0 95 -94 0 c-69 0 -96 -4 -99 -13 -2 -7 5 -16
17 -19 18 -4 21 -13 21 -54 0 -43 -3 -51 -25 -61 -19 -8 -28 -8 -40 2 -13 11
-15 36 -13 154 l3 141 30 0 c28 0 30 -3 35 -40 l5 -40 74 -3 c41 -2 78 1 82 5
5 5 4 25 -1 45 -8 29 -19 41 -53 56 -50 24 -131 33 -207 22z"/>
<path d="M3359 440 c-113 -20 -133 -54 -127 -215 4 -118 17 -143 87 -164 49
-14 182 -14 230 0 63 19 84 41 85 90 l1 44 -75 0 -75 0 -3 -40 c-4 -58 -43
-83 -76 -49 -13 12 -16 40 -16 135 0 130 8 159 44 159 32 0 44 -17 48 -70 l3
-45 75 0 75 0 3 41 c5 74 -43 107 -173 118 -33 2 -81 1 -106 -4z"/>
<path d="M3789 440 c-109 -19 -120 -37 -120 -196 0 -125 1 -130 26 -151 34
-30 86 -43 170 -43 86 0 140 14 171 45 23 23 24 31 24 153 0 120 -1 130 -22
150 -13 11 -34 25 -48 30 -39 14 -150 21 -201 12z m95 -46 c14 -5 16 -28 16
-144 0 -146 -7 -169 -48 -155 -27 8 -32 32 -32 158 0 135 12 161 64 141z"/>
<path d="M282 249 l3 -194 170 3 c206 3 218 8 223 92 4 63 -13 87 -67 95 -20
4 -45 10 -56 14 -16 7 -10 10 28 16 26 4 57 15 69 25 20 15 21 22 13 56 -17
65 -51 77 -232 82 l-153 4 2 -193z m226 129 c7 -7 12 -26 12 -43 0 -38 -16
-55 -52 -55 -27 0 -28 2 -28 48 0 27 3 52 7 55 11 11 48 8 61 -5z m-4 -154
c17 -16 21 -80 8 -101 -4 -7 -22 -16 -40 -19 l-32 -6 0 64 c0 36 3 68 7 71 11
12 41 7 57 -9z"/>
<path d="M704 427 c-2 -7 -3 -94 -2 -192 l3 -180 78 -1 77 -1 0 89 c0 97 9
111 55 90 22 -10 24 -18 27 -94 l3 -83 70 0 70 0 3 67 c4 82 -7 105 -53 114
-41 7 -48 34 -10 34 60 0 85 76 42 126 -29 33 -80 43 -240 43 -87 1 -119 -2
-123 -12z m224 -49 c17 -17 15 -73 -2 -88 -26 -21 -61 -8 -64 24 -6 48 6 76
31 76 13 0 28 -5 35 -12z"/>
<path d="M1122 248 l3 -193 145 0 145 0 0 30 c0 30 -1 30 -47 27 -77 -6 -88 1
-88 59 0 32 4 49 13 50 6 0 32 1 57 2 41 2 45 4 45 27 0 23 -4 25 -55 30 l-55
5 0 45 0 45 52 3 c50 3 51 3 44 30 l-7 27 -127 3 -127 3 2 -193z"/>
<path d="M1406 403 c3 -21 20 -108 37 -193 l32 -155 102 -1 103 -2 10 37 c5
20 18 71 27 114 10 42 21 77 24 77 4 0 16 -39 27 -87 11 -49 25 -100 31 -115
l10 -27 103 2 102 2 28 135 c15 74 27 161 28 193 l0 58 -67 -3 -68 -3 -17 -80
c-9 -44 -20 -113 -24 -153 -8 -84 -20 -101 -28 -40 -21 166 -37 263 -44 270
-5 5 -44 8 -88 6 l-78 -3 -18 -85 c-10 -47 -20 -113 -24 -148 -4 -34 -10 -65
-14 -67 -4 -2 -15 55 -24 128 -26 195 -15 177 -102 177 l-74 0 6 -37z"/>
<path d="M2094 427 c-2 -7 -3 -94 -2 -192 l3 -180 78 -1 77 -1 0 193 0 194
-75 0 c-52 0 -77 -4 -81 -13z"/>
<path d="M2292 248 l3 -193 60 0 60 0 5 99 c6 112 6 112 65 -4 20 -41 42 -81
47 -88 7 -7 35 -12 74 -12 l64 0 0 195 0 196 -62 -3 -63 -3 -5 -95 -5 -95 -32
55 c-18 30 -43 74 -57 98 l-26 42 -65 0 -65 0 2 -192z"/>
<path d="M4098 433 c-2 -5 -2 -92 0 -195 l3 -187 62 2 62 2 3 148 c1 81 6 147
10 147 4 0 21 -53 36 -117 48 -194 41 -180 84 -181 20 -1 42 2 48 6 9 5 74
267 74 296 0 3 5 6 10 6 6 0 10 -58 10 -153 l0 -152 65 -2 65 -3 0 195 0 196
-107 -3 -108 -3 -21 -95 c-11 -52 -24 -95 -29 -95 -5 0 -15 27 -22 60 -8 33
-18 77 -24 98 l-10 37 -104 0 c-57 0 -105 -3 -107 -7z"/>
<path d="M4672 248 l3 -193 75 0 75 0 5 80 5 80 80 5 c44 3 85 9 91 13 7 4 17
36 24 72 11 56 10 68 -4 89 -21 33 -88 46 -237 46 l-119 0 2 -192z m219 132
c14 -8 19 -21 19 -48 0 -45 -14 -62 -52 -62 -27 0 -28 2 -28 53 0 69 14 82 61
57z"/>
<path d="M5075 408 c-4 -18 -22 -99 -41 -181 -19 -81 -34 -154 -34 -162 0 -11
16 -13 77 -12 l76 2 12 35 c11 32 15 35 51 35 37 0 39 -2 44 -35 l5 -35 68 -3
67 -3 0 57 c0 34 -15 114 -36 196 l-37 138 -123 0 -122 0 -7 -32z m160 -119
c8 -52 15 -97 15 -101 0 -5 -18 -8 -40 -8 -46 0 -46 -1 -25 102 19 89 25 111
31 105 3 -3 12 -47 19 -98z"/>
<path d="M5427 433 c-9 -8 -9 -173 0 -292 l6 -92 61 3 61 3 1 92 c1 51 4 94 7
95 3 2 28 -40 55 -92 l50 -95 69 0 68 0 3 165 c2 107 -1 174 -9 192 -10 26
-16 28 -65 28 l-54 0 0 -95 c0 -52 -3 -95 -7 -95 -5 0 -32 43 -61 95 l-53 95
-63 0 c-34 0 -66 -3 -69 -7z"/>
<path d="M6388 19 c-17 -18 -17 -19 1 -19 10 0 21 9 24 20 6 25 -2 24 -25 -1z"/>
</g>
</svg>
